<svg xmlns="http://www.w3.org/2000/svg" xmlns:xlink="http://www.w3.org/1999/xlink" width="800" zoomAndPan="magnify" viewBox="0 0 600 599.999999" height="800" preserveAspectRatio="xMidYMid meet" version="1.0"><defs><clipPath id="8611a3f208"><path d="M 200.550781 180 L 399.300781 180 L 399.300781 420 L 200.550781 420 Z M 200.550781 180 " clip-rule="nonzero"/></clipPath></defs><g clip-path="url(#8611a3f208)"><path fill="#ff914d" d="M 314.476562 180 L 314.476562 214.992188 C 311.550781 208.550781 307.464844 202.621094 302.316406 197.472656 C 291.0625 186.203125 276.09375 180 260.175781 180 C 244.253906 180 229.285156 186.203125 218.03125 197.472656 C 206.769531 208.734375 200.574219 223.714844 200.574219 239.644531 L 200.574219 419.996094 L 240.316406 419.996094 L 240.316406 380.832031 C 243.53125 388.257812 248.140625 395.078125 254.03125 400.972656 C 266.289062 413.242188 282.589844 419.996094 299.921875 419.996094 C 309.851562 419.996094 319.433594 417.777344 328.117188 413.578125 C 331.878906 414.316406 335.742188 414.695312 339.667969 414.695312 C 355.585938 414.695312 370.554688 408.492188 381.808594 397.222656 C 393.066406 385.960938 399.269531 370.980469 399.269531 355.050781 L 399.269531 180 Z M 257.777344 397.222656 C 246.519531 385.960938 240.324219 370.980469 240.316406 355.050781 L 240.316406 239.746094 C 240.316406 228.765625 249.214844 219.863281 260.195312 219.863281 C 268.082031 219.863281 274.894531 224.460938 278.105469 231.125 C 278.148438 231.214844 278.1875 231.304688 278.226562 231.398438 C 278.308594 231.574219 278.386719 231.75 278.464844 231.925781 C 279.46875 234.300781 280.023438 236.910156 280.023438 239.644531 L 280.023438 307.214844 L 280.0625 307.214844 L 280.0625 354.796875 C 280.0625 365.734375 288.792969 374.8125 299.71875 374.914062 C 299.785156 374.914062 299.851562 374.914062 299.914062 374.914062 C 310.863281 374.914062 319.769531 366.003906 319.769531 355.046875 L 319.769531 351.1875 L 319.808594 351.183594 L 319.808594 287.472656 L 319.769531 287.472656 L 319.769531 185.304688 L 359.515625 185.304688 L 359.515625 355.050781 C 359.515625 370.980469 353.320312 385.960938 342.058594 397.222656 C 330.804688 408.488281 315.835938 414.695312 299.914062 414.695312 C 283.996094 414.695312 269.03125 408.488281 257.777344 397.222656 Z M 257.777344 397.222656 " fill-opacity="1" fill-rule="nonzero"/></g></svg>